<?xml version="1.0" standalone="no"?><!DOCTYPE svg PUBLIC "-//W3C//DTD SVG 1.1//EN" "http://www.w3.org/Graphics/SVG/1.1/DTD/svg11.dtd"><svg t="1745663358223" class="icon" viewBox="0 0 1024 1024" version="1.1" xmlns="http://www.w3.org/2000/svg" p-id="1856" xmlns:xlink="http://www.w3.org/1999/xlink" width="200" height="200"><path d="M843 538.36s-59.79 136.57-258.93 169.23L584.07 369.13C783.19 401.78 843 538.36 843 538.36z" fill="#C7CFCF" p-id="1857"></path><path d="M586.26 721c54.07-8.87 104-25 148.34-48a409.62 409.62 0 0 0 95.52999999-67.93c47.59-45.67 65.81-86.53999999 66.56000001-88.26a13.62 13.62 0 0 0 0-10.93000001c-0.75-1.72-19-42.59-66.56-88.25999999a409.61 409.61 0 0 0-95.53-67.93c-44.36-23-94.27-39.1-148.34-48a13.62 13.62 0 0 0-15.83 13.44l0 182.65999999-54.5 1e-8 0-90.33000001a13.62 13.62 0 0 0-27.25 1e-8l0 90.33-63.78 0-1e-8-90.33a13.62 13.62 0 0 0-27.24999998 0l-1e-8 90.33-63.78 0 0-90.33a13.62 13.62 0 0 0-27.25-1e-8l0 90.33000001-52.09 0-79.57999999-118.67a13.62 13.62 0 1 0-22.63000001 15.18l78.55 117.12-78.55 117.12a13.62 13.62 0 1 0 22.63 15.18L254.54 525l52.09 0 0 90.33a13.62 13.62 0 1 0 27.25000001 0L333.88 525l63.77999999 0 1e-8 90.33a13.62 13.62 0 1 0 27.25000001 0L424.91 525l63.77 0 0 90.33a13.62 13.62 0 1 0 27.25 0L515.93 525.00000001l54.5-1e-8 0 182.58A13.62 13.62 0 0 0 586.26 721z m11.42-389.5c44.8 8.73 86.28999999 22.83 123.54 42.00000001a383 383 0 0 1 89 62.86c31.14 29.65 50.65 59.4 58.81 74.99999999-8.17 15.63-27.67000001 45.38-58.81 74.99999999a383 383 0 0 1-89 62.86c-37.24000001 19.17-78.74 33.27-123.54 42.00000001z" fill="#2A2B2B" p-id="1858"></path><path d="M778.12 511.41a63.46 63.46 0 1 0-63.46 63.46 63.54 63.54 0 0 0 63.46-63.46z m-99.68 0a36.22 36.22 0 1 1 36.22 36.22 36.26 36.26 0 0 1-36.22-36.22z" fill="#2A2B2B" p-id="1859"></path></svg>