<?xml version="1.0" standalone="no"?><!DOCTYPE svg PUBLIC "-//W3C//DTD SVG 1.1//EN" "http://www.w3.org/Graphics/SVG/1.1/DTD/svg11.dtd"><svg t="1745663365736" class="icon" viewBox="0 0 1164 1024" version="1.1" xmlns="http://www.w3.org/2000/svg" p-id="2446" xmlns:xlink="http://www.w3.org/1999/xlink" width="227.34375" height="200"><path d="M732.889671 803.491645s-150.542687 190.648725-398.374801 167.245739c-185.993393-17.573295-206.93537101-492.295546-109.823734-404.489896C307.827417 641.425257 468.045709 980.5206 732.889671 803.491645z" fill="#EDC32D" p-id="2447"></path><path d="M678.401228 859.69718s-201.840238 163.680549-361.207001 96.339647c0 0-71.196173-37.939789-87.726112-177.145923 0-138.20488599 175.08728299 125.698652 448.933113 80.806276z" fill="#FFE600" p-id="2448"></path><path d="M724.07963 796.53905901c-1.464441 1.852775-149.920416 185.558272-388.512047 163.02552699-96.10571-9.07205-134.742629-151.974377-144.291908-195.566066-22.771359-103.872395-10.545848-185.689276 7.878974-196.375486 5.188707-3.017778 12.660632 2.119463 18.013095 6.947908 15.931062 14.410476 35.539602 39.88145999 58.226745 69.376148 91.005899 118.264156 243.317144 316.202337 463.731923 168.878614l-15.046782-16.28664499z m-491.860424-238.61502401c-19.734866-17.839982-34.992191-15.131-44.32625-9.717714-37.149084 21.550212-38.604168 129.090728-18.54647 220.601929 27.693379 126.344316 89.040834 206.013662 164.110992 213.101931 251.01364801 23.702426 406.698254-169.50556301 408.242234-171.46127l-15.046783-16.281966c-202.958453 135.669017-341.677999-44.61165199-433.465245-163.90045-23.3562-30.360253-43.530866-56.575154-60.968478-72.34246z" fill="#6E6E96" p-id="2449"></path><path d="M333.602518 788.837876c97.18649601 96.044887 271.67958 191.004309 458.805226 19.281029 31.745156-29.12039 56.182141-72.136597 65.001539-112.73858 27.478158-126.433212 187.565445-156.447239 144.165583-265.265047-17.46568399-43.792875-114.170271-44.022133-156.746677-146.893281-68.604159-165.795333-341.275629-258.03173699-594.090586-39.493126 0 0-112.2286 148.044247-174.160895 67.747952-61.922938-80.296295-183.8365-213.167434-183.836501 95.474082 0 269.826805 57.894555 170.36177 144.975003 130.22298 87.075769-40.152826 100.775078-75.145018 214.954707 138.134705 0.023394-0.009357 26.271046 59.50403701 80.932601 113.529286z" fill="#FFE600" p-id="2450"></path><path d="M843.43392901 624.530377c-8.55739 40.601984-32.250458 83.613512-63.01308101 112.738581-181.398884 171.72795801-350.54418499 76.763857-444.769048-19.290387-52.995929-54.015891-78.443519-113.529285-78.443519-113.529285-110.670584-213.279723-123.958166-178.29221-208.376418-138.144063-84.408895 40.148147-140.53957 139.608504-140.539571-130.218301 0-30.505293 1.169681-56.631299 3.30786-78.986252-10.882717 30.233927-17.484399 78.083258-17.484399 149.817484 0 269.84551999 57.899234 170.375806 144.989039 130.232337 87.06173301-40.157505 100.7704-75.149696 214.950028 138.139384 0 0 26.238295 59.513394 80.909208 113.538643 97.195853 96.04488701 271.68425901 191.008987 458.805225 19.285709 31.745156-29.12039 56.182141-72.131918 65.006218-112.738581 27.478158-126.433212 187.560766-156.44256 144.165583-265.265047-2.849344-7.144415-7.841545-12.754207-14.330937-17.596688-15.028068 74.02680199-123.33121601 108.312506-145.17618799 212.016466z" fill="#FFFFD6" p-id="2451"></path><path d="M-95.160607 553.05816c-14.854955-319.004893 148.226717-250.653386 134.95785-185.562951-13.25950899 65.099793 14.780095 96.264787 14.780095 96.264787 35.773539 13.339048 55.246396 28.142537 63.06454799 43.250143 33.892691 1.366188 66.203972 39.680275 135.05142401 168.289094 0 0 26.242974 59.51339399 80.909208 113.53396401 97.18649601 96.044887 271.67958 191.008987 458.805226 19.28102999 31.745156-29.12039 56.182141-72.131918 65.001539-112.73858099 27.47815801-126.428533 187.565445-156.44256 144.165583-265.26504701-17.46568399-43.792875-114.170271-44.022133-156.741998-146.89328-68.604159-165.795333-341.280308-258.031737-594.085908-39.493126 0 0-112.233278 148.044247-174.165573 67.747952-61.927617-80.296295-183.8365-213.167434-183.836501 95.474082 0.014036 72.782261 4.234247 118.657169 12.094507 146.111933z" fill="#EDC32D" p-id="2452"></path><path d="M699.759612 174.797202s-263.85675099-269.139032-405.935622-101.664037c-142.078871 167.493711-79.98282 303.747568 7.82283 221.860507 87.791614-81.887062 166.848046-158.505878 398.112792-120.19647z" fill="#EDC32D" p-id="2453"></path><path d="M707.77426999 166.941621c-6.601682-6.728008-163.301572-164.864267-304.01893399-159.801885-46.988445 1.684341-86.855869 21.456637-118.48405699 58.750762-92.301906 108.799093-105.935713 213.424763-65.79692301 251.720135 17.779159 16.960382 50.712711 22.092944 89.822181-14.39644l2.924204-2.723018c87.169343-81.34433 162.45004401-151.586042 385.700132-114.610071l33.916084 5.614471-24.06268701-24.553954z m-413.78184599 119.850244c-23.519955 21.938546-45.580148 27.389262-59.01277 14.564874-27.805668-26.533055-19.856513-118.077007 67.411084-220.96687 27.379904-32.264494 61.735789-49.374595 102.155302-50.825 130.793784-4.739549 285.659614 151.506504 287.203593 153.08791399l-0.608234-0.67841499 10.456952-18.25171c-234.151519-38.786638-316.983684 38.505915-404.69108 120.346189l-2.914847 2.723018z" fill="#6E6E96" p-id="2454"></path><path d="M252.69330999 675.303912s26.242974 59.51339399 80.90920801 113.533964c97.18649601 96.044887 271.67958 191.004309 458.805226 19.281029 31.745156-29.12039 56.182141-72.131918 65.001539-112.73858 35.02494301-161.158716 191.359892-121.380188 144.170262-265.265047-14.695878-44.79880101-114.17495-44.022133-156.746677-146.893281-68.594801-165.795333-341.275629-258.03173699-594.085908-39.493126 0 0-27.422013 31.674975-62.638783 58.558935-38.721136 51.26480001-105.87489 23.87553901-121.071391 69.22175-37.359627 105.500592 21.784148 136.946309 36.20866 136.946309 39.984392-9.020584 71.004345 20.315028 149.44786399 166.848047z" fill="#FFE600" p-id="2455"></path><path d="M847.813216 607.972366c-8.824077 40.60666299-23.669675 93.200221-55.419509 122.325291-187.139681 171.723279-442.55601 32.83062-539.765899-132.81499399-54.666234-54.02057 0 0 0 0-78.448198-146.533018-117.86646399-139.234206-157.846177-130.22765901-14.59294599 0-26.33654799-1.300686-35.787575-3.752338 10.012474 33.158131 35.464743 44.925127 44.279462 44.925127 39.960998-9.001869 70.98562999 20.338422 149.42915 166.87144 0 0 26.247653 59.513394 80.909208 113.533964 97.191174 96.044887 271.684259 191.004309 458.805225 19.28103 31.745156-29.129748 56.182141-72.131918 65.00154-112.74326 34.585142-159.137506 187.448477-122.00713701 145.826531-259.973408-0.009357 136.838698-129.366773 52.682454-155.431956 172.574807z" fill="#FFFFD6" p-id="2456"></path><path d="M139.819047 380.834257c37.294125-26.883959 66.316262-58.558934 66.31626101-58.558934 267.660555-218.538611 556.35198301-126.29285 628.97984599 39.493126 44.883018 102.431347 193.455961-1.824703 165.715795 146.336512 7.200559-19.706794 7.368993-44.15781601-3.733623-78.00839801-14.6912-44.80347999-114.17495-44.026811-156.741999-146.89328099-68.59948-165.795333-341.280308-258.031737-594.095265-39.493125 0 0-27.412655 31.67497501-62.634104 58.558934-38.725815 51.2648-105.87489 23.87553901-121.071392 69.22175-6.667184 18.822515-10.218337 35.258879-11.542417 49.608532 28.02089-7.008731 63.948826-9.174982 88.806898-40.265116z" fill="#E3AA00" p-id="2457"></path><path d="M98.767905 459.783079c64.168727 0 121.712377-34.416708 121.712377-34.416708 265.87796-237.356447 478.867602-80.067037 614.630194-5.979412C933.25611 472.939656 1028.56643701 374.920347 1000.840306 508.09560299c7.186523-19.706794 12.333122-44.153137 1.235184-77.98500399-14.695878-44.79880101-116.023046-47.1522-158.599452-150.018669-68.59948-165.80469099-344.405697-254.901669-597.215976-36.363059 0 0-27.412655 31.67029599-62.638783 58.554256-38.721136 51.26480001-105.87489 23.87553901-121.071392 69.22175-14.597625 41.233612-14.43387 71.12131299-7.97722699 92.273834 10.578599 5.432001 24.741103-3.995632 44.19524499-3.995632z" fill="#E3AA00" p-id="2458"></path><path d="M635.993256 118.87239s-196.979042-17.55458-280.82649 28.156573c-142.195839 77.507774-81.068285-54.132859 53.87553001-76.319378 89.031476-14.644412 226.95096 48.162805 226.95095999 48.162805z" fill="#FFE600" p-id="2459"></path><path d="M325.723544 796.819782c71.743584 70.906092 261.592247 214.753522 474.277772 19.571111C832.827257 786.273934 859.02812301 740.820111 868.380896 697.761796 879.89524 644.784582 916.047756 621.054084 951.007196 584.658275c45.163742-47.021196 87.829044-91.436341 61.001229-158.711742-8.636928-21.648465-30.439791-31.043347-55.690875-41.926064-34.360563-14.812846-77.128797-47.156879-101.107268-105.1029-33.27042-80.413263-110.932593-142.116301-207.740111-165.07013-131.486236-31.169672-278.758493 13.067682-404.050095 121.37083l-0.893637 0.77199-0.701809 0.931066c-18.368678 24.189013-75.743895 87.010267-120.12161 87.18338-14.199933 0.056145-26.046467-6.334995-36.208661-19.496251-39.235796-50.881145-96.943202-116.631281-144.900143-100.283813-39.731741 13.54491201-59.0502 79.819065-59.0502 202.607549 0 139.135953 15.159072 176.008992 37.911717 188.571372 22.54678 12.445411 48.317203-3.789768 78.15343799-22.579532 14.265435-8.987833 29.017458-18.27978201 44.84558801-25.569237 8.379598-3.869306 15.893632-7.593572 23.183088-11.196192 62.213019-30.800053 78.939464-39.072041 177.17399401 144.43695l5.15127699 9.628818 9.764502-4.879912-8.77261201 0.533375-6.46599899-5.937303c2.868059 6.414533 29.63505 63.911397 83.234535 116.879253z m-63.139407-126.807509c-103.872395-194.045481-130.517739-191.776298-206.926013-153.962836-7.139736 3.532438-14.522765 7.191202-22.626319 10.920147-17.147531 7.907047-33.218954 18.03181-47.400172 26.958819-22.836861 14.382404-44.40110901 27.974103-55.349329 21.933867-17.45164799-9.638175-26.308476-66.47066-26.308476-168.916043 0-144.79721099 27.4688-175.779734 43.844341-181.366134 17.465684-5.946661 52.45319699 5.305675 119.882996 92.737028 14.518087 18.813157 32.713652 28.325007 54.095429 28.23143199 64.528988-0.271366 134.925099-92.142829 137.89609-96.04956499l-1.61416 1.703056c119.780063-103.540206 259.814331-146.004322 384.193582-116.509634 89.817502 21.297561 161.659339 78.050506 192.183348 151.80594299 27.464121 66.372406 76.880825 101.579819 112.963159 117.13190401 21.526818 9.273235 38.533987 16.60947699 43.727373 29.630372 21.465995 53.842778-12.866496 89.583566-56.341218 134.84088199-35.389883 36.84964601-75.509958 64.70678-88.367097 123.88798501-8.421707 38.763245-32.035237 79.706775-61.6235 106.848064-80.810955 74.162485-166.118165 103.774142-253.544838 87.997478-82.415758-14.864312-148.689911-66.381764-189.783161-106.993105-51.573596-50.974719-77.465666-107.70895-78.546452-110.095101l-1.96506499-4.365251c-0.023394-0.060823-4.529007-1.660948-4.52900601-1.66094799l-4.505613-1.60012401-4.276356 2.138178 14.920457 4.753586z" fill="#6E6E96" p-id="2460"></path><path d="M794.714356 587.203502m20.202738 0a20.202739 20.202739 0 1 0-40.405477 0 20.202739 20.202739 0 1 0 40.405477 0Z" fill="#6E6E96" p-id="2461"></path></svg>