<svg t="1745663916993" class="icon" viewBox="0 0 1024 1024" version="1.1" xmlns="http://www.w3.org/2000/svg" p-id="1141" width="200" height="200"><path d="M849.99704141 325.32380977s-137.88582233-163.34166645-192.33304449-151.32085118c0 0-67.17514421 86.97413409-110.30865786-9.89949493 0 0-74.95331881 67.88225099-60.1040764 112.4299782l-2.82842713 476.58997052s2.12132034 81.31727984 33.23401872 99.70205615 189.50461736 5.65685425 248.1944802-61.51828996 91.21677477-143.54267658 91.21677477-143.54267658L849.99704141 325.32380977z" fill="#FFDA00" p-id="1142"></path><path d="M583.20565287 742.58752134c-185.40339803 0-241.33554442-103.87398616-241.33554442-232.0017349s55.93214639-232.00173491 241.33554442-232.00173491S993.8225607 382.45803769 993.8225607 510.58578644s-225.21350981 232.00173491-410.61690783 232.0017349z" fill="#FF7F00" p-id="1143"></path><path d="M436.97597052 579.67011896c0-36.06244584-27.36503243-65.54879862-62.43752878-69.08433252 35.07249635-3.53553391 62.50823946-33.09259736 62.43752878-69.08433252 0-38.32518754-31.11269837-69.43788591-69.43788592-69.43788592-38.32518754 0-69.43788591 31.11269837-69.43788591 69.43788592 0 36.06244584 27.36503243 65.54879862 62.43752878 69.08433252-35.07249635 3.53553391-62.50823946 33.09259736-62.43752878 69.08433252 0 38.32518754 31.11269837 69.43788591 69.43788591 69.43788591 38.39589822-0.07071068 69.43788591-31.11269837 69.43788592-69.43788591z" fill="#FFDA00" p-id="1144"></path><path d="M897.86817049 452.10805563c-3.04055916-3.04055916-6.36396103-6.08111832-9.89949493-9.0509668-4.80832611-4.10121933-9.89949494-8.20243866-15.34421715-12.23294731-10.6773124-7.84888527-25.66797616-5.58614357-33.51686143 5.09116882-7.14177849 9.6873629-5.93969696 22.91025971 2.33345237 31.18340905 0.84852814 0.84852814 1.76776695 1.6263456 2.75771645 2.33345238 7.63675324 5.65685425 14.42497834 11.3137085 20.08183259 16.97056275 8.98025612 8.83883476 23.12239174 9.12167748 32.45620125 1.06066017 0.56568542-0.42426407 0.98994949-0.84852814 1.48492424-1.34350288 9.26309883-9.54594155 9.0509668-24.74873734-0.35355339-34.01183618zM801.70164825 390.30692296c-66.75088014-29.83990617-148.49242405-47.65899705-218.49599538-47.65899705-13.29360749 0-24.04163056 10.74802307-23.97091989 23.97091988 0 6.64680374 2.68700577 12.58650071 7.07106782 16.97056275 4.31335137 4.31335137 10.32375901 7.07106781 16.97056274 7.07106781 63.63961031 0 137.88582233 16.26345597 198.90913755 43.48706704 12.09152596 5.44472222 26.30437226 0 31.6783838-12.16223664 5.37401154-12.16223664-0.07071068-26.37508294-12.16223664-31.67838379z" fill="#301207" p-id="1145"></path><path d="M973.95286015 616.58109294c29.20351006-33.72899346 43.91133111-69.36717523 43.91133111-105.9953065 0-36.62813127-14.77853173-72.33702372-43.91133111-105.9953065-20.93036072-24.18305192-48.57823587-46.59833688-82.44865069-66.75088015-13.64716088-21.28391411-28.28427125-39.88082246-42.21427483-55.50788232-51.26524164-57.91204538-121.1981023-107.90449481-187.02974363-133.85531368-6.08111832-2.40416306-12.9400541-2.19203102-18.95046173 0.56568543-5.93969696 2.82842712-10.53589104 7.84888527-12.58650071 14.14213562-1.41421356 4.10121933-3.67695526 7.77817459-6.7882251 10.88944443-10.88944443 10.88944443-28.70853532 10.88944443-39.59797974 0-4.80832611-4.80832611-7.63675324-11.17228714-8.13172799-17.88980156-0.49497475-7.28319985-4.24264069-14.00071427-10.323759-18.1019336s-13.5764502-5.37401154-20.64751801-3.25269119c-25.80939751 7.84888527-46.59833688 25.10229073-61.80113268 51.47737367-12.51579003 21.70817818-21.49604615 49.92173875-27.57716447 86.12560594-0.14142136 1.13137085-0.35355339 2.19203102-0.49497474 3.32340188-40.02224382 15.69777054-71.62991693 39.95153314-94.39875529 72.61986642-7.84888527 0.49497475-15.34421715 2.05060967-22.48599564 4.38406205-17.96051224-7.21248917-34.36538957-17.96051224-48.43681451-32.03193719-27.22361108-27.22361108-42.21427484-63.42747827-42.28498552-101.96479785 0-15.55634919 6.08111832-30.26417023 17.18269478-41.3657467 11.03086579-11.03086579 25.73868684-17.1119841 41.3657467-17.18269478 13.29360749 0 24.04163056-10.74802307 23.97091989-23.97091988 0-13.29360749-10.74802307-24.04163056-23.97091989-23.97091988-28.4256926 0-55.15432893 11.03086579-75.30687219 31.18340905-20.08183259 20.08183259-31.18340905 46.88117959-31.18340905 75.30687219 0 51.33595231 20.01112191 99.63134547 56.28569978 135.90592335 11.52584053 11.52584053 24.18305192 21.35462479 37.83021279 29.48635277-12.37436867 15.90990258-19.79898987 35.77960313-19.79898987 57.41707063 0 3.67695526 0.21213203 7.28319985 0.6363961 10.81873376l-29.76919549-0.07071068c-42.28498551 0-76.5796644-34.29467889-76.5796644-76.5796644 0-13.29360749-10.74802307-24.04163056-23.97091988-23.97091989-13.29360749 0-24.04163056 10.74802307-23.97091988 23.97091989 0 34.36538957 14.00071427 65.47808794 36.55742058 88.03479425 22.55670632 22.55670632 53.66940469 36.55742059 88.03479426 36.55742059l50.06316011 0c2.05060967 2.47487373 4.24264069 4.94974747 6.50538239 7.21248917 1.06066017 1.06066017 2.05060967 2.05060967 3.18198051 3.04055916-3.46482323 3.18198052-6.71751442 6.57609307-9.61665222 10.18233765L244.99647942 520.76812409c-68.73077913 0-124.59221485 55.86143571-124.59221484 124.59221484 0 6.64680374 2.68700577 12.58650071 7.07106781 16.97056275 4.31335137 4.31335137 10.32375901 7.07106781 16.97056275 7.07106781 13.29360749 0 24.04163056-10.74802307 23.97091988-23.97091988 0-42.28498551 34.29467889-76.5796644 76.5796644-76.5796644l29.98132753 0c-0.42426407 3.53553391-0.6363961 7.14177849-0.63639611 10.81873375 0 21.6374675 7.35391052 41.57787873 19.79898988 57.41707063-13.64716088 8.13172798-26.30437226 17.96051224-37.8302128 29.48635278-36.27457787 36.27457787-56.28569978 84.56997103-56.28569978 135.90592334 0 29.4156421 11.9501046 55.93214639 31.25411973 75.23616152s45.8912301 31.18340905 75.23616152 31.25411973c13.29360749 0 24.04163056-10.74802307 23.97091988-23.97091988 0-13.29360749-10.74802307-24.04163056-23.97091988-23.97091989-16.12203461 0-30.75914498-6.57609307-41.3657467-17.18269478s-17.18269478-25.24371209-17.18269479-41.3657467c0-60.66976183 37.61808076-112.71282092 90.79251071-133.92602436 7.14177849 2.33345238 14.70782105 3.81837662 22.41528496 4.31335137 6.57609307 9.40452019 13.85929291 18.1019336 21.92031022 26.1629509 19.79898987 19.79898987 43.98204179 35.35533906 72.47844507 46.45691553 1.20208153 7.70746391 2.54558441 15.13208512 4.10121933 22.34457428 8.20243866 38.32518754 20.57680733 66.82159082 37.90092347 86.97413409 1.90918831 2.19203102 3.8890873 4.31335137 5.93969697 6.36396103 19.94041123 19.94041123 45.39625535 29.98132752 75.80184694 29.98132752 31.11269837 0 69.22575388-10.53589104 110.30865786-30.40559159 41.01219331-19.79898987 81.88296526-47.5175757 118.22825382-80.18590899 33.02188668-29.62777413 61.58900064-62.86179285 83.65073221-97.22718241 33.87041482-20.15254326 61.51828996-42.56782823 82.44865069-66.75088014z m-435.2949345-423.83980465c3.25269119 5.51543289 7.14177849 10.6773124 11.73797257 15.27350648 29.62777413 29.62777413 77.85245661 29.62777413 107.48023074 0 2.12132034-2.12132034 4.10121933-4.38406204 5.93969696-6.64680375 44.68914857 20.78893937 90.22682528 53.03300859 128.33988079 90.43895732-67.17514421-23.75878785-141.06780285-37.26452737-209.02076452-37.19381669-27.43574311 0-52.82087655 2.19203102-76.15540034 6.57609306 7.28319985-32.88046533 17.60695885-55.22503961 31.6783838-68.44793642z m-164.61445866 293.73215691c-2.12132034-0.14142136-4.31335137-0.21213203-6.43467171-0.21213204l-0.98994949 0c-1.83847763 0-3.74766594 0.07071068-5.58614357 0.21213204-9.6873629-1.34350288-18.52619767-5.79827561-25.59726548-12.86934342-7.00035713-7.00035713-11.38441918-15.76848122-12.79863274-25.38513344-0.35355339-2.19203102-0.49497475-4.45477272-0.49497475-6.71751442a44.98 44.98 0 0 1 7.4246212-24.81944802c3.18198052-4.87903679 7.28319985-9.12167748 12.09152596-12.37436867 7.35391052-5.09116882 16.33416665-8.13172798 25.95081887-8.13172799 6.64680374 0 13.15218613 1.41421356 19.02117242 4.17193001 4.80832611 2.2627417 9.26309883 5.30330086 13.15218613 9.19238816l0.21213203 0.21213203c8.4145707 8.55599205 13.08147545 19.86970055 13.08147545 31.89051583-0.07071068 22.69812768-17.04127343 41.64858941-39.03229432 44.83056993z m12.51579003 134.4209991c-5.79827561 2.68700577-12.23294731 4.17193001-19.02117242 4.17193001-9.61665222 0-18.59690835-3.04055916-25.95081887-8.13172798-4.73761543-3.32340187-8.83883476-7.56604256-12.09152595-12.37436867-4.73761543-7.14177849-7.49533188-15.69777054-7.42462121-24.81944802 0-2.2627417 0.14142136-4.5254834 0.49497475-6.71751442 2.8991378-19.7282792 18.66761902-35.35533906 38.39589822-38.25447687 1.83847763 0.14142136 3.74766594 0.21213203 5.58614357 0.21213204 0.28284271 0 0.6363961 0.07071068 0.98994949 0 2.19203102-0.07071068 4.31335137-0.07071068 6.50538239-0.28284271 9.89949494 1.41421356 18.80904038 6.08111832 25.59726548 12.86934341 8.20243866 8.20243866 13.36431816 19.58685784 13.29360749 32.10264787 0 12.44507935-5.02045815 23.68807717-13.08147546 31.89051583-3.74766594 3.8890873-8.27314934 7.00035713-13.29360748 9.33380951z m389.26228304 123.95581874c-33.02188668 29.62777413-70.07428202 54.80077554-107.05596667 72.69057711-34.08254685 16.54629868-65.90235201 25.59726548-89.44900782 25.66797616-14.00071427 0-28.77924599-2.75771645-41.93143213-15.90990258-11.9501046-11.9501046-22.55670632-32.45620126-30.26417023-67.31656557 23.33452378 4.38406204 48.71965722 6.57609307 76.15540033 6.57609307 67.95296167 0.07071068 141.84562031-13.43502884 209.02076452-37.19381669-5.37401154 5.23259018-10.88944443 10.46518036-16.475588 15.4856385z m81.24656916-96.9443397c-3.32340187 1.90918831-6.71751442 3.74766594-10.18233765 5.5154329-77.28677118 40.80006127-175.7867458 65.19524523-263.60940803 65.19524522-31.39554108 0-59.4676803-3.18198052-84.0042856-9.47523087-18.59690835-4.73761543-35.2139177-11.3137085-49.92173875-19.65756851-13.78858223-7.84888527-25.88010819-17.25340546-36.06244584-28.28427125 13.50573952-7.56604256 24.8901587-18.38477631 33.16330803-31.32483041 9.26309883-14.49568901 14.63711037-31.74909448 14.63711037-50.13387078 0-19.09188309-5.79827561-36.91097398-15.69777054-51.76021639-4.24264069-6.36396103-9.19238816-12.16223664-14.8492424-17.25340546 5.65685425-5.09116882 10.60660172-10.88944443 14.8492424-17.25340546 9.89949494-14.8492424 15.69777054-32.66833329 15.69777054-51.76021638 0-18.1019336-5.09116882-35.35533906-14.63711037-50.27529214-3.67695526-5.65685425-7.84888527-10.96015511-12.72792206-15.8391919-6.151829-6.151829-13.01076477-11.3137085-20.43538597-15.48563851 10.18233765-11.03086579 22.20315293-20.3646753 35.99173516-28.21356057 14.63711037-8.27314934 31.32483041-14.91995308 49.92173875-19.65756852 24.60731599-6.36396103 52.60874452-9.47523087 84.00428561-9.47523086 87.82266222 0 186.39334752 24.32447327 263.60940802 65.19524522 3.53553391 1.83847763 6.85893578 3.74766594 10.18233765 5.5154329 28.4256926 15.98061325 51.97234842 33.30472939 70.07428202 51.40666299 2.82842712 2.82842712 5.44472222 5.58614357 7.99030662 8.41457069 22.627417 25.17300141 34.71894296 51.6895057 34.71894296 77.42819254 0 25.73868684-12.09152596 52.11376977-34.78965363 77.35748187-18.80904038 21.07178208-45.18412332 41.3657467-77.92316729 59.82123368z" fill="#301207" p-id="1146"></path></svg>