<svg t="1745663733416" class="icon" viewBox="0 0 1024 1024" version="1.1" xmlns="http://www.w3.org/2000/svg" p-id="1107" width="200" height="200"><path d="M662.4 815.5c27.7-30.7 50.2-61.69999999 52.5-64.9 132.9-34.9 230.3-118.3 244.7-214-23.1-0.3-41.6-10.6-41.6-23.3s18.7-23 42-23.3c-13-96.70000001-111-181.4-245.2-216.60000001-2.4-3.4-24.8-34.3-52.5-64.89999999-56.2-62.2-82.4-65.9-97.3-63.3-19.5 3.4-35.4 26.09999999-51.8 73.5-5.4 15.7-9.8 31-12.8 42.4-132 17.6-250.9 78.5-306.20000001 156.5L64 320l0 67.8 30.2 60.4-29.9 63.8 29.9 63.8-30.2 60.4L64 704l130.19999999-97.7c55.3 78 174.2 138.9 306.20000001 156.5 3 11.4 7.4 26.7 12.8 42.4 16.4 47.4 32.4 70.1 51.8 73.5 14.9 2.7 41.2-1.00000001 97.4-63.2zM542.6 231.8c15.9-46.9 26.9-54.3 28.2-55.1 2.4-0.2 20.2 0.6 67.6 53.1 10.4 11.5 20.2 23.3 28.3 33.4-28.6-4.7-58.49999999-7.2-89.2-7.2-14.4 0-28.7 0.5-42.9 1.6 2.2-7.9 4.9-16.8 8-25.8zM99 637.70000001l30.8-61.50000001-30.1-64.2 30.1-64.2-30.8-61.50000001 78.69999999 59.00000001c-10.5 21.4-16.2 43.8-16.2 66.7s5.7 45.3 16.2 66.7l-78.69999999 59.00000001zM306.50000001 664c-35.6-21.50000001-64.7-46.8-84.10000001-73.2-19.2-26-28.9-52.5-28.9-78.8s9.7-52.8 28.9-78.8c19.4-26.4 48.5-51.7 84.10000001-73.2 75.6-45.8 174.39999999-72 270.99999999-72 90.09999999 0 176.4 22.9 243.1 64.4 31.1 19.4 56.4 41.79999999 75 66.5 11.4 15.2 20 30.89999999 25.7 46.9-2.3 1-4.5 2.10000001-6.60000001 3.2-18.30000001 10.1-28.8 26.3-28.79999999 44.3 0 17.9 10.4 34.1 28.5 44.19999999 1.89999999 1.1 3.9 2.1 6 3.00000001-5.89999999 15.7-14.6 31.1-25.99999999 46.1-18.80000001 24.5-44.1 46.7-75.20000001 65.8-66.5 41-152.4 63.6-241.8 63.60000001-96.49999999 0-195.2-26.2-270.89999999-72.00000001z m264.29999999 183.3c-1.4-0.8-12.4-8.2-28.2-55.1-2.99999999-9-5.7-17.9-8-25.8 14.2 1.1 28.49999999 1.6 42.9 1.6 30.7 0 60.6-2.5 89.3-7.2-8.1 10.1-17.9 21.9-28.3 33.4-47.5 52.5-65.3 53.3-67.7 53.1zM864.5 512c0 17.7-14.3 32-32 32s-32-14.3-32-32 14.3-32 32-32 32 14.3 32 32zM432 576c0-14 9.2-27.2 19-41.2 4.6-6.5 13.1-18.7 13.2-22.9-0.20000001-4.2-8.7-16.3-13.2-22.8-9.8-14-19-27.2-19-41.2 0-6.69999999 1.9-18.8 18.3-46.79999999 8.3-14.2 16.5-25.9 16.8-26.40000001l26.2 18.3c-15.5 22.2-29.2 47.8-29.4 54.8 0.20000001 4.2 8.7 16.3 13.2 22.8 9.8 14 19 27.2 19 41.19999999s-9.2 27.2-19 41.20000001c-4.6 6.5-13.1 18.7-13.2 22.79999999 0.2 7 13.9 32.7 29.4 54.80000001l-26.2 18.3c-0.29999999-0.5-8.5-12.2-16.8-26.4-16.4-27.7-18.3-39.80000001-18.3-46.5z m95.7 64c0-14 9.2-27.2 19-41.2 4.9-7 13.1-18.7 13.19999999-22.8-0.20000001-4.2-8.4-15.8-13.19999999-22.8-9.8-14-19-27.2-19.00000001-41.2s9.2-27.2 19.00000001-41.2c4.9-7 13.1-18.7 13.19999999-22.9-0.20000001-4.2-8.4-15.8-13.19999999-22.8-9.8-14-19-27.2-19.00000001-41.2 0-6.69999999 1.9-18.8 18.30000001-46.8 8.3-14.2 16.5-25.9 16.8-26.4L589 329c-15.5 22.2-29.2 47.8-29.4 54.8 0.20000001 4.2 8.4 15.8 13.2 22.8 9.8 14 19 27.2 19 41.2s-9.2 27.2-19 41.2c-4.9 7-13.1 18.7-13.2 22.9 0.20000001 4.2 8.4 15.8 13.2 22.8 9.8 14 19 27.2 19 41.2s-9.2 27.2-19 41.2c-4.9 7-13.1 18.7-13.2 22.8 0.2 7 13.9 32.7 29.4 54.8l-26.2 18.3c-0.29999999-0.5-8.5-12.2-16.79999999-26.4-16.4-27.8-18.30000001-39.9-18.30000001-46.6zM656.5 512c0-51.6 14.4-100.4 40.4-137.2 5.1-7.2 15.1-8.9 22.3-3.8 7.2 5.1 8.9 15.1 3.8 22.3-22.3 31.5-34.6 73.7-34.6 118.8s12.3 87.3 34.6 118.8c5.1 7.2 3.4 17.2-3.8 22.3-7.2 5.1-17.2 3.4-22.29999999-3.8-26-36.99999999-40.4-85.80000001-40.40000001-137.4z" fill="#d4237a" p-id="1108"></path></svg>