<svg t="1745663834682" class="icon" viewBox="0 0 1024 1024" version="1.1" xmlns="http://www.w3.org/2000/svg" p-id="1589" width="200" height="200"><path d="M596 256.00000001c99.19999999 0 192.7 27.9 263.1 78.59999999 34.5 24.9 61.7 53.90000001 80.7 86.3 19.9 33.8 30 69.8 30 107s-10.1 73.09999999-30 107c-19 32.4-46.20000001 61.4-80.7 86.29999999-70.4 50.7-163.8 78.6-263.1 78.60000002s-192.7-27.9-263.1-78.60000002c-34.5-24.9-61.7-53.90000001-80.7-86.29999999-19.9-33.8-30-69.8-30-107 0-99.69999999 74.7-191.2 194.9-238.8 5.1-2 10.9 0.50000001 13 5.6 2 5.1-0.50000001 10.9-5.6 13-112.4 44.60000001-182.2 128.9-182.20000001 220.2 0 138.9 158.7 251.8 353.80000001 251.8 195.1 0 353.8-113 353.8-251.8C949.7 388.9 791.1 276 596 276c-20.2 0-40.4 1.2-60.2 3.6-5.5 0.7-10.5-3.2-11.09999999-8.7-0.7-5.5 3.2-10.5 8.69999999-11.1 20.5-2.60000001 41.6-3.8 62.6-3.79999999z" fill="#153BDF" p-id="1590"></path><path d="M773.9 289.4c1.30000001 0 2.5 0.2 3.7 0.7 56.9 23 104.8 56.6 138.5 97.1 35.1 42.20000001 53.7 90.8 53.7 140.5s-18.6 98.3-53.7 140.5c-33.7 40.5-81.6 74.1-138.5 97.1-3.3 1.3-7.1 0.8-9.9-1.4-30.00000001-23.4-55.1-57.4-72.6-98.1-17.9-41.6-27.4-89.4-27.39999999-138.1 0-48.69999999 9.5-96.40000001 27.39999999-138.1 17.5-40.8 42.59999999-74.7 72.6-98.1 1.8-1.4 4-2.10000001 6.2-2.1z m1.6 455.2c107.6-45.3 174.2-128 174.2-216.9 0-88.8-66.6-171.5-174.2-216.9-54.3 45.4-87.8 127.8-87.8 216.9 0 89.09999999 33.5 171.6 87.8 216.9zM565 382.2c2.99999999 0 5.89999999 1.3 7.89999999 3.8 3.4 4.4 2.6 10.6-1.69999999 14-32.8 25.7-53.2 74.6-53.2 127.7 0 53.1 20.40000001 102 53.2 127.7 4.4 3.4 5.1 9.7 1.7 13.99999999-3.4 4.4-9.7 5.1-14 1.70000001-37.6-29.4-60.9-84.4-60.9-143.5s23.3-114.1 60.9-143.5c1.8-1.2 4-1.9 6.1-1.9zM467.4 430.99999999c2.99999999 0 5.89999999 1.3 7.9 3.80000001 3.4 4.4 2.6 10.6-1.7 14-20.2 15.8-32.7 46-32.7 78.9 0 32.9 12.5 63.1 32.7 78.9 4.4 3.4 5.1 9.7 1.7 14-3.4 4.4-9.7 5.1-14 1.7-24.9-19.5-40.4-55.8-40.4-94.7s15.5-75.2 40.4-94.7c1.8-1.2 3.9-1.9 6.1-1.90000001zM89.5 376.4c3.40000001 0 6.8 0.9 9.8 2.8l145.6 87c4.7 2.8 6.3 9 3.5 13.69999999-2.8 4.7-9 6.3-13.7 3.50000001L92 398.2l39 131.1c2.99999999 10.1 3.4 20.79999999 1.1 31.1l-25.9 115 127.1-107.1c4.2-3.6 10.5-3 14.1 1.2 3.6 4.2 3 10.5-1.2 14.1l-130.3 109.8c-6.2 5.2-14.7 5.9-21.6 1.7-6.9-4.2-10.3-12-8.5-19.9L112.6 556c1.6-6.9 1.3-14.2-0.7-21l-40.1-134.7c-2.2-7.5 0.29999999-15.4 6.6-20.1 3.2-2.5 7.1-3.8 11.1-3.8z" fill="#153BDF" p-id="1591"></path><path d="M826.9 529.50000001m34.09999999-1e-8a34.1 34.1 0 1 0-68.19999999 0 34.1 34.1 0 1 0 68.19999999 0Z" fill="#153BDF" p-id="1592"></path><path d="M474.3 213.3c4.2 0 8.4 0.3 12.40000001 1l0.19999999 0c18.5 3.4 44.7 24 58.6 61 4.6 12.3 1.7 26.3-7.5 35.8-15.7 16.1-41.9 22.9-78 20.1-8.7-0.7-17-4.4-23.4-10.4l-72.7-68 11.5-6.80000001c2.4-1.5 55.80000001-32.7 98.9-32.69999999z m9 20.7c-25.5-4.2-63.8 11.6-85.9 22.80000001l52.9 49.39999999c3.1 2.9 7.2 4.7 11.3 5.1 37.2 2.90000001 54.3-6.1 62.1-14.1 3.8-3.9 5-9.7 3.1-14.8-11.3-29.9-32.2-46.29999999-43.5-48.4zM424.9 748.9c3.49999999 0 7 1.9 8.8 5.2 1.7 3 3.2 6.10000001 4.8 9 14.9 28.49999999 26.7 51 86.5 59.4 42.6 2 72.9-27.3 82.8-36.9 4-3.9 7.2-7 12.8-5.8 5.4 1.2 8.8 6.5 7.7 11.9-0.6 2.8-2.3 5.1-4.60000001 6.5-0.5 0.5-1.3 1.2-1.89999999 1.8-11.49999999 11.2-46.7 45.2-98.2 42.5-0.29999999 0-0.6 0-0.90000001-0.1-70.3-9.8-86.39999999-40.4-101.89999999-69.99999999-1.5-2.9-2.99999999-5.8-4.6-8.70000001-2.6-4.8-0.9-10.9 4-13.6 1.5-0.8 3.1-1.2 4.7-1.2z" fill="#153BDF" p-id="1593"></path></svg>