<?xml version="1.0" standalone="no"?><!DOCTYPE svg PUBLIC "-//W3C//DTD SVG 1.1//EN" "http://www.w3.org/Graphics/SVG/1.1/DTD/svg11.dtd"><svg t="1745663356670" class="icon" viewBox="0 0 1024 1024" version="1.1" xmlns="http://www.w3.org/2000/svg" p-id="1706" xmlns:xlink="http://www.w3.org/1999/xlink" width="200" height="200"><path d="M285.36691294 433.69344825c98.81541072-98.81541072 193.90193783-152.88421988 283.39513983-160.34198708 141.69757019-11.18665025 283.39513983 63.39101789 417.63494227 223.73300498 9.32220872 9.32220872 7.45776666 26.1021841-1.86444153 35.42439228-31.69550868 27.96662563-55.93325124 48.47548405-76.44211022 65.25545996-7.45776666 7.45776666-16.77997538 13.05109232-24.23774202 16.77997592-11.18665025 7.4577672-27.96662563 5.59332513-37.28883379-7.4577672-7.4577672-11.18665025-5.59332513-27.96662563 7.45776664-37.28883434 5.59332513-5.59332513 13.05109177-9.32220872 20.50885842-16.77997536 14.9155333-11.18665025 33.55995075-26.10218356 54.06880972-46.61104254-117.45982763-132.37536092-236.78409731-195.76637936-356.1083659-184.5797291-85.76431839 7.45776666-182.71528704 67.1199015-287.12402342 182.71528703l-5.59332513 5.59332513c-9.32220872 9.32220872-26.10218356 11.18665025-37.28883433 3.7288836-11.18665025-11.18665025-11.18665025-26.10218356-3.72888308-37.2888338l5.59332513-5.59332514c14.9155333-11.18665025 27.96662563-24.23774257 41.01771741-37.28883434z" fill="#525252" p-id="1707"></path><path d="M240.62031193 482.16893232l3.72888307-3.72888307c11.18665025-7.4577672 27.96662563-5.59332513 37.28883434 7.45776665 80.17099328 113.73094402 167.79975374 175.25752094 259.1573978 184.57972911 78.30655175 7.4577672 156.61310349-7.4577672 233.05521372-46.61104251 13.05109232-5.59332513 27.96662563-1.86444207 35.42439227 13.05109177 5.59332513 13.05109232 1.86444207 27.96662563-13.05109232 35.42439281-85.76431895 44.74660099-173.39307886 61.52657636-261.02183934 52.20436766-108.13761944-11.18665025-206.95302962-80.17099381-296.44623161-206.95302961-9.32220872-13.05109177-7.45776666-26.1021841 1.86444207-35.42439281z" fill="#525252" p-id="1708"></path><path d="M734.69736444 319.96250424c9.32220872-9.32220872 24.23774202-9.32220872 35.42439281-1.86444207 11.18665025 7.4577672 13.05109177 24.23774202 3.72888361 37.28883434-67.1199015 85.76431895-72.71322662 203.22414655-11.1866508 294.58179008 7.4577672 11.18665025 5.59332513 27.96662563-7.45776666 37.28883436-11.18665025 7.4577672-27.96662563 5.59332513-37.28883379-7.45776721-72.71322662-110.00206042-67.1199015-253.56407268 14.9155333-357.97280797l1.86444153-1.86444153z" fill="#525252" p-id="1709"></path><path d="M794.35949928 547.42439281m18.64441746-18.64441744a26.36718725 26.36718725 0 1 0-37.28883436 37.28883435 26.36718725 26.36718725 0 1 0 37.28883436-37.28883434Z" fill="#FD9F27" p-id="1710"></path><path d="M130.61825097 290.13143655c3.72888359-3.72888359 9.32220818-5.59332513 14.91553386-7.45776665 11.18665025-3.72888305 22.37330049 3.72888305 27.96662562 13.05109231 26.1021841 48.47548459 46.61104253 87.62876047 59.66213484 111.86650195 13.05109177 24.23774202 29.83106715 48.47548459 48.47548405 74.57766869 7.4577672 11.18665025 7.45776666 26.1021841-1.86444153 35.42439228-20.50885898 20.50885898-41.01771794 44.74660099-57.79769276 68.98434301-16.77997538 24.23774257-44.74660099 59.6621343-78.30655176 108.13761945-7.4577672 11.18665025-20.50885898 13.05109177-31.69550921 9.32220872s-18.6444169-14.91553385-16.77997538-27.96662563l27.96662563-371.0239003c0-3.72888305 1.86444153-9.32220872 7.45776664-14.91553383z m95.08652713 206.95302959c-14.9155333-22.37330049-27.96662563-42.88215892-41.0177174-63.39101789-5.59332513-9.32220818-11.18665025-18.64441745-16.77997539-31.69550867l-13.05109177 184.57972856c9.32220872-13.05109177 16.77997538-24.23774257 26.10218355-33.55995073 13.05109232-16.77997538 29.83106715-37.28883434 44.74660101-55.93325127z" fill="#FD9F27" p-id="1711"></path></svg>